<svg width="512" height="512" viewBox="0 0 512 512" fill="none" xmlns="http://www.w3.org/2000/svg">
<rect width="512" height="512" fill="white"/>
<path d="M397.753 367H253.903C235.703 367 218.786 363.733 203.153 357.2C187.753 350.667 174.336 341.8 162.903 330.6C151.703 319.167 142.836 305.75 136.303 290.35C129.769 274.717 126.503 257.917 126.503 239.95C126.503 221.983 129.769 205.3 136.303 189.9C142.836 174.267 151.703 160.85 162.903 149.65C174.336 138.217 187.753 129.233 203.153 122.7C218.786 116.167 235.703 112.9 253.903 112.9C272.103 112.9 288.903 116.167 304.303 122.7C319.936 129.233 333.353 138.217 344.553 149.65C355.986 160.85 364.969 174.267 371.503 189.9C378.036 205.3 381.303 221.983 381.303 239.95C381.303 250.45 379.903 260.95 377.103 271.45C374.303 281.717 370.219 291.4 364.853 300.5C359.719 309.367 353.419 317.417 345.953 324.65C338.719 331.65 330.436 337.133 321.103 341.1V341.8H397.753V367ZM158.003 239.95C158.003 253.95 160.453 267.017 165.353 279.15C170.253 291.283 176.903 301.9 185.303 311C193.936 319.867 204.086 326.867 215.753 332C227.419 337.133 240.136 339.7 253.903 339.7C267.436 339.7 280.036 337.133 291.703 332C303.603 326.867 313.753 319.867 322.153 311C330.786 301.9 337.553 291.283 342.453 279.15C347.353 267.017 349.803 253.95 349.803 239.95C349.803 226.183 347.353 213.233 342.453 201.1C337.786 188.967 331.136 178.467 322.503 169.6C314.103 160.5 304.069 153.383 292.403 148.25C280.736 142.883 267.903 140.2 253.903 140.2C239.903 140.2 227.069 142.883 215.403 148.25C203.736 153.383 193.586 160.5 184.953 169.6C176.553 178.467 169.903 188.967 165.003 201.1C160.336 213.233 158.003 226.183 158.003 239.95Z" fill="black"/>
</svg>
