<svg width="272" height="255" viewBox="0 0 272 255" fill="none" xmlns="http://www.w3.org/2000/svg">
<path d="M271.25 254.1H128.45C110.95 254.1 94.3833 250.95 78.75 244.65C63.1167 238.35 49.4667 229.6 37.8 218.4C26.1333 207.2 16.9167 193.9 10.15 178.5C3.38334 162.867 3.79235e-06 145.833 3.79235e-06 127.4C3.79235e-06 109.2 3.26667 92.4 9.8 77C16.3333 61.3667 25.3167 47.8333 36.75 36.4C48.4167 24.9667 61.95 16.1 77.35 9.8C92.9833 3.26667 109.9 2.26498e-06 128.1 2.26498e-06C145.6 2.26498e-06 161.933 3.15 177.1 9.44998C192.5 15.75 205.917 24.5 217.35 35.7C228.783 46.6667 237.767 59.7333 244.3 74.9C251.067 89.8333 254.45 106.167 254.45 123.9C254.45 134.4 253.167 144.783 250.6 155.05C248.267 165.083 244.65 174.533 239.75 183.4C235.083 192.267 229.133 200.2 221.9 207.2C214.9 214.2 206.85 219.8 197.75 224V224.7H271.25V254.1ZM127.05 222.6C140.583 222.6 152.95 220.15 164.15 215.25C175.583 210.117 185.267 203.233 193.2 194.6C201.367 185.733 207.667 175.35 212.1 163.45C216.533 151.55 218.75 138.833 218.75 125.3C218.75 112.233 216.417 99.9833 211.75 88.55C207.317 77.1167 201.017 67.2 192.85 58.8C184.683 50.4 175 43.75 163.8 38.85C152.6 33.95 140.35 31.5 127.05 31.5C113.983 31.5 101.85 33.95 90.65 38.85C79.6833 43.75 70.1167 50.4 61.95 58.8C53.7833 67.2 47.3667 77.1167 42.7 88.55C38.0333 99.75 35.7 111.767 35.7 124.6C35.7 138.133 37.9167 150.85 42.35 162.75C46.7833 174.65 52.9667 185.033 60.9 193.9C69.0667 202.767 78.75 209.767 89.95 214.9C101.15 220.033 113.517 222.6 127.05 222.6Z" fill="#459716"/>
</svg>
